<svg xmlns="http://www.w3.org/2000/svg" viewBox="70 0 460 600" width="460" height="600">
  <defs>
    <linearGradient id="bg" x1="0" y1="0" x2="1" y2="1">
      <stop offset="0" stop-color="#dbe6cf"/><stop offset="1" stop-color="#c2d4bb"/>
    </linearGradient>
  </defs>
  <rect x="0" y="0" width="600" height="600" fill="url(#bg)"/>
  <pattern id="ht" width="24" height="24" patternUnits="userSpaceOnUse"><circle cx="6" cy="6" r="3" fill="#60925e" opacity="0.16"/><circle cx="18" cy="18" r="3.6" fill="#60925e" opacity="0.16"/></pattern><rect x="0" y="0" width="600" height="600" fill="url(#ht)"/>
  <g transform="translate(140,150)">
      <rect x="0" y="0" width="20" height="300" fill="#f2efe0" stroke="#2f5d55" stroke-width="2"/><rect x="45" y="0" width="20" height="300" fill="#f2efe0" stroke="#2f5d55" stroke-width="2"/><rect x="90" y="0" width="20" height="300" fill="#f2efe0" stroke="#2f5d55" stroke-width="2"/><rect x="135" y="0" width="20" height="300" fill="#f2efe0" stroke="#2f5d55" stroke-width="2"/><rect x="180" y="0" width="20" height="300" fill="#f2efe0" stroke="#2f5d55" stroke-width="2"/><rect x="225" y="0" width="20" height="300" fill="#f2efe0" stroke="#2f5d55" stroke-width="2"/><rect x="270" y="0" width="20" height="300" fill="#f2efe0" stroke="#2f5d55" stroke-width="2"/>
      <rect x="0" y="0" width="315" height="20" fill="#a9c6a0" opacity="0.85"/><rect x="0" y="38" width="315" height="20" fill="#60925e" opacity="0.85"/><rect x="0" y="76" width="315" height="20" fill="#a9c6a0" opacity="0.85"/><rect x="0" y="114" width="315" height="20" fill="#60925e" opacity="0.85"/><rect x="0" y="152" width="315" height="20" fill="#a9c6a0" opacity="0.85"/><rect x="0" y="190" width="315" height="20" fill="#60925e" opacity="0.85"/><rect x="0" y="228" width="315" height="20" fill="#a9c6a0" opacity="0.85"/><rect x="0" y="266" width="315" height="20" fill="#60925e" opacity="0.85"/>
    </g>
  <path d="M 72 83 C 73.95 94.05, 73.95 94.05, 85 96 C 73.95 97.95, 73.95 97.95, 72 109 C 70.05 97.95, 70.05 97.95, 59 96 C 70.05 94.05, 70.05 94.05, 72 83 Z" fill="#cfaf92"/>
  <path d="M 540 500 C 541.5 508.5, 541.5 508.5, 550 510 C 541.5 511.5, 541.5 511.5, 540 520 C 538.5 511.5, 538.5 511.5, 530 510 C 538.5 508.5, 538.5 508.5, 540 500 Z" fill="#cfaf92"/>
</svg>