<svg xmlns="http://www.w3.org/2000/svg" viewBox="0 80 600 440" width="600" height="440">
  <defs>
    <linearGradient id="bg" x1="0" y1="0" x2="1" y2="1">
      <stop offset="0" stop-color="#dbe6cf"/><stop offset="1" stop-color="#c2d4bb"/>
    </linearGradient>
  </defs>
  <rect x="0" y="0" width="600" height="600" fill="url(#bg)"/>
  <pattern id="ht" width="24" height="24" patternUnits="userSpaceOnUse"><circle cx="6" cy="6" r="3" fill="#60925e" opacity="0.16"/><circle cx="18" cy="18" r="3.6" fill="#60925e" opacity="0.16"/></pattern><rect x="0" y="0" width="600" height="600" fill="url(#ht)"/>
  <g transform="translate(150,180)">
      <line x1="0" y1="0" x2="0" y2="240" stroke="#f2efe0" stroke-width="8"/><line x1="42" y1="0" x2="42" y2="240" stroke="#f2efe0" stroke-width="8"/><line x1="84" y1="0" x2="84" y2="240" stroke="#f2efe0" stroke-width="8"/><line x1="126" y1="0" x2="126" y2="240" stroke="#f2efe0" stroke-width="8"/><line x1="168" y1="0" x2="168" y2="240" stroke="#f2efe0" stroke-width="8"/><line x1="210" y1="0" x2="210" y2="240" stroke="#f2efe0" stroke-width="8"/><line x1="252" y1="0" x2="252" y2="240" stroke="#f2efe0" stroke-width="8"/><line x1="294" y1="0" x2="294" y2="240" stroke="#f2efe0" stroke-width="8"/>
      <path d="M0 10 q 21 16 42 0 t 42 0 t 42 0 t 42 0 t 42 0 t 42 0 t 42 0" fill="none" stroke="#2f5d55" stroke-width="10" stroke-linecap="round"/><path d="M0 40 q 21 -16 42 0 t 42 0 t 42 0 t 42 0 t 42 0 t 42 0 t 42 0" fill="none" stroke="#2f5d55" stroke-width="10" stroke-linecap="round"/><path d="M0 70 q 21 16 42 0 t 42 0 t 42 0 t 42 0 t 42 0 t 42 0 t 42 0" fill="none" stroke="#2f5d55" stroke-width="10" stroke-linecap="round"/><path d="M0 100 q 21 -16 42 0 t 42 0 t 42 0 t 42 0 t 42 0 t 42 0 t 42 0" fill="none" stroke="#60925e" stroke-width="10" stroke-linecap="round"/><path d="M0 130 q 21 16 42 0 t 42 0 t 42 0 t 42 0 t 42 0 t 42 0 t 42 0" fill="none" stroke="#60925e" stroke-width="10" stroke-linecap="round"/><path d="M0 160 q 21 -16 42 0 t 42 0 t 42 0 t 42 0 t 42 0 t 42 0 t 42 0" fill="none" stroke="#60925e" stroke-width="10" stroke-linecap="round"/><path d="M0 190 q 21 16 42 0 t 42 0 t 42 0 t 42 0 t 42 0 t 42 0 t 42 0" fill="none" stroke="#a9c6a0" stroke-width="10" stroke-linecap="round"/><path d="M0 220 q 21 -16 42 0 t 42 0 t 42 0 t 42 0 t 42 0 t 42 0 t 42 0" fill="none" stroke="#a9c6a0" stroke-width="10" stroke-linecap="round"/>
    </g>
  <path d="M 72 83 C 73.95 94.05, 73.95 94.05, 85 96 C 73.95 97.95, 73.95 97.95, 72 109 C 70.05 97.95, 70.05 97.95, 59 96 C 70.05 94.05, 70.05 94.05, 72 83 Z" fill="#cfaf92"/>
  <path d="M 540 500 C 541.5 508.5, 541.5 508.5, 550 510 C 541.5 511.5, 541.5 511.5, 540 520 C 538.5 511.5, 538.5 511.5, 530 510 C 538.5 508.5, 538.5 508.5, 540 500 Z" fill="#cfaf92"/>
</svg>